<svg fill="#1abc9c" role="img" viewBox="0 0 24 24" xmlns="http://www.w3.org/2000/svg">
  <title>Dynamic Programming</title>
  <!-- DP table grid -->
  <rect x="4" y="4" width="4" height="4" rx="0.5" ry="0.5"/>
  <rect x="10" y="4" width="4" height="4" rx="0.5" ry="0.5"/>
  <rect x="16" y="4" width="4" height="4" rx="0.5" ry="0.5"/>
  
  <rect x="4" y="10" width="4" height="4" rx="0.5" ry="0.5"/>
  <rect x="10" y="10" width="4" height="4" rx="0.5" ry="0.5"/>
  <rect x="16" y="10" width="4" height="4" rx="0.5" ry="0.5"/>
  
  <rect x="4" y="16" width="4" height="4" rx="0.5" ry="0.5"/>
  <rect x="10" y="16" width="4" height="4" rx="0.5" ry="0.5"/>
  <rect x="16" y="16" width="4" height="4" rx="0.5" ry="0.5"/>
  
  <!-- Arrows showing dependency -->
  <line x1="6" y1="4" x2="6" y2="2" stroke="#1abc9c" stroke-width="1.5"/>
  <line x1="10" y1="6" x2="12" y2="6" stroke="#1abc9c" stroke-width="1.5"/>
  <line x1="16" y1="10" x2="18" y2="8" stroke="#1abc9c" stroke-width="1.5"/>
</svg>
